<svg xmlns="http://www.w3.org/2000/svg" xmlns:xlink="http://www.w3.org/1999/xlink" width="200" height="200"  version="1.2" fill="#26292E" baseProfile="tiny" x="0px" y="0px" viewBox="0 0 100 100" xml:space="preserve"><path d="M80,30c-0.424,0-0.841,0.029-1.257,0.064C72.416,20.969,61.894,15,50,15s-22.416,5.969-28.743,15.064   C20.841,30.029,20.424,30,20,30c-8.271,0-15,6.729-15,15c0,7.003,4.83,12.883,11.329,14.527C20.489,74.209,34.004,85,50,85   s29.511-10.791,33.671-25.473C90.17,57.883,95,52.003,95,45C95,36.729,88.271,30,80,30z M15,50c0,1.275,0.073,2.532,0.206,3.772   C12.107,52.072,10,48.778,10,45c0-4.938,3.602-9.042,8.315-9.847C16.193,39.664,15,44.694,15,50z M50,80c-16.542,0-30-13.458-30-30   s13.458-30,30-30s30,13.458,30,30S66.542,80,50,80z M84.794,53.772C84.927,52.532,85,51.275,85,50   c0-5.306-1.193-10.336-3.315-14.847C86.398,35.958,90,40.062,90,45C90,48.778,87.893,52.072,84.794,53.772z"/><path d="M42.5,45c0,1.381,1.119,2.5,2.5,2.5s2.5-1.119,2.5-2.5c0-5.514-4.486-10-10-10s-10,4.486-10,10c0,1.381,1.119,2.5,2.5,2.5   s2.5-1.119,2.5-2.5c0-2.757,2.243-5,5-5S42.5,42.243,42.5,45z"/><path d="M62.5,35c-5.514,0-10,4.486-10,10c0,1.381,1.119,2.5,2.5,2.5s2.5-1.119,2.5-2.5c0-2.757,2.243-5,5-5s5,2.243,5,5   c0,1.381,1.119,2.5,2.5,2.5s2.5-1.119,2.5-2.5C72.5,39.486,68.014,35,62.5,35z"/><path d="M60.606,60.606C57.773,63.439,54.007,65,50,65s-7.773-1.561-10.606-4.394c-0.977-0.977-2.559-0.977-3.535,0   c-0.977,0.976-0.977,2.559,0,3.535C39.636,67.92,44.658,70,50,70s10.364-2.08,14.142-5.858c0.977-0.977,0.977-2.56,0-3.535   C63.165,59.63,61.583,59.63,60.606,60.606z"/></svg>