<svg id="Layer_1" data-name="Layer 1" xmlns="http://www.w3.org/2000/svg" viewBox="0 0 88.53 33.48"><path fill="white" d="M22.1,18.72a1.45,1.45,0,0,1,.18.76,1.84,1.84,0,0,1-.17.86,1.57,1.57,0,0,1-.53.55q-1.42.94-4.51,3.07a28.91,28.91,0,0,1-2.42,7.82q-1.49,2.86-3.77,2.86a2.72,2.72,0,0,1-2-.76,2.65,2.65,0,0,1-.77-2,5.66,5.66,0,0,1,.5-2.28A10.39,10.39,0,0,1,10.5,27a31,31,0,0,1,3.9-3.46l.07-.46a9.61,9.61,0,0,1-3.72.79A10.24,10.24,0,0,1,6,22.8a7.61,7.61,0,0,1-3.17-3,8.64,8.64,0,0,1-1.13-4.46A14,14,0,0,1,3.08,9.09,10.23,10.23,0,0,1,6.78,4.87a9.67,9.67,0,0,1,5.29-1.5,6,6,0,0,1,4.21,1.31,4.52,4.52,0,0,1,1.4,3.47,4.35,4.35,0,0,1-.52,2.27,1.77,1.77,0,0,1-2.52.54,1,1,0,0,1-.4-.86,5.71,5.71,0,0,1,.1-.82,5.39,5.39,0,0,0,.14-1.06,2,2,0,0,0-.61-1.56,3,3,0,0,0-2.05-.55,5.71,5.71,0,0,0-3.25,1,7,7,0,0,0-2.41,3,11.55,11.55,0,0,0-.91,4.81,6,6,0,0,0,1.57,4.45A6.16,6.16,0,0,0,11.38,21a9,9,0,0,0,3.46-.74l.34-2.93H12.72a1.49,1.49,0,0,1-1-.32,1.38,1.38,0,0,1-.36-1.07,1.48,1.48,0,0,1,.36-1.06,1.25,1.25,0,0,1,1-.38h4.49a1.19,1.19,0,0,1,.88.35,1.16,1.16,0,0,1,.28,1q-.07.77-.48,3.48l-.26,1.82q1.92-1.44,3.5-2.5a1.09,1.09,0,0,1,.55-.19A.55.55,0,0,1,22.1,18.72ZM12.51,30.9a18.6,18.6,0,0,0,1.39-4.56,13.57,13.57,0,0,0-2.63,2.82,4.28,4.28,0,0,0-.8,2.22q0,.94.67.94T12.51,30.9Z" transform="translate(-1.73 -1.16)"/><path fill="white" d="M33.53,16.67a1.66,1.66,0,0,1,.17.79q0,1.15-.7,1.37a10.94,10.94,0,0,1-3.17.58A6,6,0,0,1,28,22.63a4.43,4.43,0,0,1-3,1.21,4.26,4.26,0,0,1-2.46-.7A4.42,4.42,0,0,1,21,21.3a5.92,5.92,0,0,1-.53-2.5,7.33,7.33,0,0,1,.7-3.25,5.47,5.47,0,0,1,1.92-2.23,4.83,4.83,0,0,1,2.71-.8,3.74,3.74,0,0,1,2.94,1.26A5.4,5.4,0,0,1,30,16.88a14.59,14.59,0,0,0,2.69-.48,1.4,1.4,0,0,1,.34,0A.53.53,0,0,1,33.53,16.67Zm-7,4a3.47,3.47,0,0,0,.76-1.8,3.31,3.31,0,0,1-1.14-1.32,3.91,3.91,0,0,1-.4-1.73,4.18,4.18,0,0,1,.07-.77h-.12a1.88,1.88,0,0,0-1.6.92,4.55,4.55,0,0,0-.64,2.6,3.35,3.35,0,0,0,.52,2,1.49,1.49,0,0,0,1.21.7A1.74,1.74,0,0,0,26.51,20.67Z" transform="translate(-1.73 -1.16)"/><path fill="white" d="M32.21,22.76a4.32,4.32,0,0,1-.89-2.83,7.8,7.8,0,0,1,.89-3.64,7.58,7.58,0,0,1,2.36-2.76,5.33,5.33,0,0,1,3.13-1,.94.94,0,0,1,.71.2,1.73,1.73,0,0,1,.3.73,5.64,5.64,0,0,1,1.06-.1q1.18,0,1.18.84a18,18,0,0,1-.36,2.4A23.28,23.28,0,0,0,40,20.41a.87.87,0,0,0,.18.58.58.58,0,0,0,.47.22,1.82,1.82,0,0,0,1.1-.59,20.6,20.6,0,0,0,1.75-1.91.84.84,0,0,1,.65-.34.55.55,0,0,1,.49.29,1.49,1.49,0,0,1,.18.79,2.21,2.21,0,0,1-.46,1.49A12.07,12.07,0,0,1,42.32,23a3.56,3.56,0,0,1-2.14.84,2.24,2.24,0,0,1-1.45-.54,3.28,3.28,0,0,1-1-1.48,3.65,3.65,0,0,1-3.14,2A2.92,2.92,0,0,1,32.21,22.76Zm4.25-2a4,4,0,0,0,.7-1.66L38,14.72a2.91,2.91,0,0,0-1.86.76,5.09,5.09,0,0,0-1.36,1.93,6.5,6.5,0,0,0-.5,2.54,1.7,1.7,0,0,0,.3,1.1,1,1,0,0,0,.83.36A1.32,1.32,0,0,0,36.46,20.79Z" transform="translate(-1.73 -1.16)"/><path fill="white" d="M54.11,18.66a1.49,1.49,0,0,1,.18.79,2.2,2.2,0,0,1-.46,1.49A10.2,10.2,0,0,1,51.58,23a4.94,4.94,0,0,1-2.81.82q-4.9,0-4.9-6.89,0-1.06.07-2.14H43a1.35,1.35,0,0,1-1-.26,1.18,1.18,0,0,1-.25-.84q0-1.34,1.08-1.34h1.37a23.29,23.29,0,0,1,1.25-4.82,10.87,10.87,0,0,1,2-3.48,3.46,3.46,0,0,1,2.56-1.3,1.8,1.8,0,0,1,1.58.89,4,4,0,0,1,.58,2.23,8.41,8.41,0,0,1-3.12,6.48H51.8a.76.76,0,0,1,.55.17.89.89,0,0,1,.17.62q0,1.66-2.71,1.66H46.88q0,1.2,0,1.87a7.47,7.47,0,0,0,.59,3.5,2,2,0,0,0,1.86,1,2.86,2.86,0,0,0,1.82-.62A14.59,14.59,0,0,0,53,18.71a.84.84,0,0,1,.65-.34A.56.56,0,0,1,54.11,18.66ZM48.62,6a12.76,12.76,0,0,0-.84,2.5A33.36,33.36,0,0,0,47.12,12a8.2,8.2,0,0,0,2.12-2.75,6.67,6.67,0,0,0,.71-2.77q0-1.42-.53-1.42Q49.06,5.07,48.62,6Z" transform="translate(-1.73 -1.16)"/><path fill="white" d="M62.6,18q0,1.9-3,1.9A9.14,9.14,0,0,1,58,19.69q.31,1.49.52,3.3a27.73,27.73,0,0,1,.2,3,7.63,7.63,0,0,1-.84,4,2.52,2.52,0,0,1-2.21,1.37q-1.73,0-2.46-2.45a27.69,27.69,0,0,1-.73-7.39,45.37,45.37,0,0,1,1-9.35,27.84,27.84,0,0,1,2.74-7.85Q57.92,1.16,60,1.16a2,2,0,0,1,1.76,1,5,5,0,0,1,.64,2.71q0,5.64-6.74,12.29a41.22,41.22,0,0,0-.24,4.13q0,2.47.17,5.08t.55,2.6q.72,0,.72-2.5a25.43,25.43,0,0,0-.25-3.62q-.25-1.75-.68-3.7a1.65,1.65,0,0,1,.2-.79,3.28,3.28,0,0,1,.56-.84.91.91,0,0,1,.6-.36q.48,0,1.15,0l.5,0a15.19,15.19,0,0,0,2.14-.17l.41,0,.43,0Q62.6,17,62.6,18ZM58.43,5a27,27,0,0,0-1.26,3.88q-.62,2.41-1.08,5.1a17.54,17.54,0,0,0,3-4.55A11.46,11.46,0,0,0,60.1,5q0-1.46-.6-1.46Q59.07,3.54,58.43,5Z" transform="translate(-1.73 -1.16)"/><path fill="white" d="M61.47,22.76a4.32,4.32,0,0,1-.89-2.83,7.8,7.8,0,0,1,.89-3.64,7.58,7.58,0,0,1,2.36-2.76,5.33,5.33,0,0,1,3.13-1,.94.94,0,0,1,.71.2,1.73,1.73,0,0,1,.3.73,5.64,5.64,0,0,1,1.06-.1q1.18,0,1.18.84a18,18,0,0,1-.36,2.4,23.28,23.28,0,0,0-.55,3.84.87.87,0,0,0,.18.58.58.58,0,0,0,.47.22,1.82,1.82,0,0,0,1.1-.59,20.6,20.6,0,0,0,1.75-1.91.84.84,0,0,1,.65-.34.55.55,0,0,1,.49.29,1.49,1.49,0,0,1,.18.79,2.21,2.21,0,0,1-.46,1.49A12.07,12.07,0,0,1,71.57,23a3.56,3.56,0,0,1-2.14.84A2.24,2.24,0,0,1,68,23.3a3.28,3.28,0,0,1-1-1.48,3.65,3.65,0,0,1-3.14,2A2.92,2.92,0,0,1,61.47,22.76Zm4.25-2a4,4,0,0,0,.7-1.66l.89-4.42a2.91,2.91,0,0,0-1.86.76,5.09,5.09,0,0,0-1.36,1.93,6.5,6.5,0,0,0-.5,2.54,1.7,1.7,0,0,0,.3,1.1,1,1,0,0,0,.83.36A1.32,1.32,0,0,0,65.72,20.79Z" transform="translate(-1.73 -1.16)"/><path fill="white" d="M73.1,22.51A4.8,4.8,0,0,1,71.79,19a7.23,7.23,0,0,1,.77-3.41,5.85,5.85,0,0,1,2-2.26,4.66,4.66,0,0,1,2.57-.79,2.68,2.68,0,0,1,2.05.78,2.81,2.81,0,0,1,.73,2,3.11,3.11,0,0,1-.44,1.7,1.34,1.34,0,0,1-1.16.7,1.15,1.15,0,0,1-.73-.22.72.72,0,0,1-.28-.6,1.78,1.78,0,0,1,0-.38l.07-.31a2.13,2.13,0,0,0,.12-.67.68.68,0,0,0-.16-.48.58.58,0,0,0-.44-.17,1.43,1.43,0,0,0-1,.49,3.5,3.5,0,0,0-.77,1.33,5.67,5.67,0,0,0-.29,1.85q0,2.78,2.42,2.78a4.28,4.28,0,0,0,2.12-.66,8.65,8.65,0,0,0,2.24-2,.84.84,0,0,1,.65-.34.56.56,0,0,1,.49.29,1.49,1.49,0,0,1,.18.79,2.32,2.32,0,0,1-.46,1.49,7.79,7.79,0,0,1-2.7,2.15,7,7,0,0,1-3,.76A4.9,4.9,0,0,1,73.1,22.51Z" transform="translate(-1.73 -1.16)"/><path fill="white" d="M90.09,19.38a1.49,1.49,0,0,1,.18.79,2.66,2.66,0,0,1-.41,1.49,4.67,4.67,0,0,1-1.76,1.61,5.51,5.51,0,0,1-2.6.58,4.62,4.62,0,0,1-3.58-1.38,5.29,5.29,0,0,1-1.27-3.73,7,7,0,0,1,.7-3.08,5.7,5.7,0,0,1,1.93-2.27,4.86,4.86,0,0,1,2.8-.84,3,3,0,0,1,2.23.83,3,3,0,0,1,.84,2.24A3.88,3.88,0,0,1,88,18.45a8.62,8.62,0,0,1-4,1.88,2,2,0,0,0,1.94,1.1A2.71,2.71,0,0,0,87.47,21a7.85,7.85,0,0,0,1.48-1.54.82.82,0,0,1,.65-.36A.55.55,0,0,1,90.09,19.38Zm-5.93-3.46a4.81,4.81,0,0,0-.61,2.5v0a5.46,5.46,0,0,0,2.23-1,2,2,0,0,0,.82-1.56,1,1,0,0,0-.25-.73.88.88,0,0,0-.68-.28A1.76,1.76,0,0,0,84.16,15.92Z" transform="translate(-1.73 -1.16)"/></svg>